# xmcd CD database file
#
# Track frame offsets:
#	150
#	24640
#	49000
#	75088
#	96538
#
# Disc length: 1647 seconds
#
# Revision: 0
# Processed by: cddbd v1.5.1PL0 Copyright (c) Steve Scherf et al.
# Submitted via: CDex 1.51
#
DISCID=31066d05
DTITLE=The Web - SPIRIT OF THE LAND
DYEAR=2005
DGENRE=Jungle
TTITLE0=forest phunk
TTITLE1=electro gecko
TTITLE2=yulara
TTITLE3=kikin kooka's
TTITLE4=shadows
EXTD=YEAR: 2005
EXTT0=
EXTT1=
EXTT2=
EXTT3=
EXTT4=
PLAYORDER=
